<svg xmlns="http://www.w3.org/2000/svg" version="1.1" viewBox="-5.0 -10.0 110.0 135.0">
 <path d="m74.371 90.648-8.1719-43.578h8.7031v-24.535l4.832 2.418 2.7852-5.5703-32.52-16.258-32.52 16.262 2.7852 5.5703 4.832-2.418v24.535h8.7031l-8.1719 43.574h-9.8672v6.2266h68.477v-6.2266zm-24.371-34.074-6.5352-9.5039h13.066zm10.773-4.6797 5.2461 27.98-12.242-17.805zm-14.551 10.176-12.242 17.805 5.2461-27.98zm3.7773 5.4922 15.871 23.086h-31.742zm0-57.477 18.676 9.3398v5.8555h-37.352v-5.8555zm-18.676 21.422h37.352v9.3398l-37.352-0.003906z"/>
</svg>